<svg width="48" height="48" viewBox="0 0 48 48" fill="none" xmlns="http://www.w3.org/2000/svg">
<path d="M24 0C10.7668 0 0 10.7658 0 24C0 37.2342 10.7668 48 24 48C37.2332 48 48 37.2342 48 24C48 10.7658 37.2332 0 24 0ZM25.8462 37.8462C25.8462 38.8652 25.0191 39.6923 24 39.6923C22.9809 39.6923 22.1538 38.8652 22.1538 37.8462V36C22.1538 34.9809 22.9809 34.1538 24 34.1538C25.0191 34.1538 25.8462 34.9809 25.8462 36V37.8462ZM25.8462 30.4615C25.8462 31.4806 25.0191 32.3077 24 32.3077C22.9809 32.3077 22.1538 31.4806 22.1538 30.4615V10.1538C22.1538 9.13477 22.9809 8.30769 24 8.30769C25.0191 8.30769 25.8462 9.13477 25.8462 10.1538V30.4615Z" fill="#FBCB5C"/>
</svg>
